<svg xmlns="http://www.w3.org/2000/svg" width="16" height="19" fill="none" viewBox="0 0 16 19"><g clip-path="url(#a)"><path fill="#EA4335" d="M7.472 9.091.066 16.798a2 2 0 0 0 1.18 1.308 2.02 2.02 0 0 0 1.762-.124l8.333-4.714z"/><path fill="#FBBC04" d="m14.96 7.781-3.603-2.05-4.056 3.536 4.073 3.99 3.576-2.028a1.935 1.935 0 0 0 0-3.448z"/><path fill="#4285F4" d="M.066 2.174A2 2 0 0 0 0 2.678v13.616q0 .256.066.504l7.66-7.51z"/><path fill="#34A853" d="m7.527 9.486 3.83-3.755L3.035.995a2.06 2.06 0 0 0-1.032-.28A2.01 2.01 0 0 0 .066 2.169z"/></g><defs><clipPath id="a"><path fill="#fff" d="M0 .716h16v17.568H0z"/></clipPath></defs></svg>