<svg width="16" height="19" viewBox="0 0 16 19" fill="none" xmlns="http://www.w3.org/2000/svg">
<g clip-path="url(#clip0_2022_377)">
<path d="M7.4721 9.09126L0.0662842 16.7982C0.149451 17.0909 0.298904 17.3609 0.503218 17.5875C0.707533 17.8141 0.9613 17.9913 1.24512 18.1055C1.52894 18.2197 1.8353 18.268 2.14078 18.2466C2.44626 18.2252 2.74278 18.1348 3.00766 17.9821L11.3406 13.2681L7.4721 9.09126Z" fill="#EA4335"/>
<path d="M14.9606 7.78125L11.3572 5.73112L7.30103 9.26658L11.3737 13.2571L14.9497 11.2289C15.2664 11.0642 15.5318 10.8164 15.7169 10.5125C15.9021 10.2087 15.9999 9.86025 15.9999 9.50506C15.9999 9.14987 15.9021 8.80146 15.7169 8.49758C15.5318 8.1937 15.2664 7.94596 14.9497 7.78119L14.9606 7.78125Z" fill="#FBBC04"/>
<path d="M0.0662693 2.17375C0.0215314 2.33813 -0.000751541 2.50775 1.93353e-05 2.67803V16.2938C0.00046109 16.4641 0.0227235 16.6335 0.0662693 16.7982L7.72596 9.28861L0.0662693 2.17375Z" fill="#4285F4"/>
<path d="M7.52728 9.48597L11.3572 5.73119L3.03528 0.995233C2.72218 0.813103 2.36607 0.716647 2.00322 0.715687C1.10278 0.713949 0.311159 1.30756 0.0662842 2.1683L7.52728 9.48597Z" fill="#34A853"/>
</g>
<defs>
<clipPath id="clip0_2022_377">
<rect width="16" height="17.5686" fill="white" transform="translate(0 0.715683)"/>
</clipPath>
</defs>
</svg>
