<svg xmlns="http://www.w3.org/2000/svg" >


  <symbol id="icon1" viewBox="0 0 260 252">
    <path d="M249.023 66.7283C270.132 85.4452 254.147 115.325 238.316 138.677C209.704 180.88 211.669 219.554 198.846 240.544C185.122 263.01 152.137 243.877 125.825 243.012C100.379 242.174 69.9384 250.466 40.3106 248.134C-23.562 243.105 1.72193 153.359 26.5628 94.2999C40.7111 60.6627 49.6118 27.416 66.7855 9.83358C82.296 -6.04602 107.284 2.11946 127.791 10.618C178.965 31.8264 224.698 45.1605 249.023 66.7283Z" fill="#48EBE2"/>
  </symbol>

   <symbol id="btn-left" viewBox="0 0 52 39" >
    <path d="M0 19.5L20.4286 0V14.5C39.9785 14.5 52 10.2143 52 29.7143C42.7143 27.8571 33.9393 27.8571 20.4286 27.8571V39L0 19.5Z" fill="currentColor" />
  </symbol>

  <symbol id="btn-right" viewBox="0 0 52 39" >
    <path d="M52 19.5L31.5714 0V14.5C12.0215 14.5 0 10.2143 0 29.7143C9.28571 27.8571 18.0607 27.8571 31.5714 27.8571V39L52 19.5Z" fill="currentColor" />

  </symbol>

<symbol id="btn-right-mob" viewBox="0 0 32 32" >
<path fill="currentColor" d="M11.057 24.943c-0.521-0.521-0.521-1.365 0-1.886l7.057-7.057-7.057-7.057c-0.521-0.521-0.521-1.365 0-1.886s1.365-0.521 1.886 0l8 8c0.521 0.521 0.521 1.365 0 1.886l-8 8c-0.521 0.521-1.365 0.521-1.886 0z"></path>
</symbol>
<symbol id="btn-left-mob" viewBox="0 0 32 32" >
<path fill="currentColor" d="M20.943 24.943c0.521-0.521 0.521-1.365 0-1.886l-7.057-7.057 7.057-7.057c0.521-0.521 0.521-1.365 0-1.886s-1.365-0.521-1.886 0l-8 8c-0.521 0.521-0.521 1.365 0 1.886l8 8c0.521 0.521 1.365 0.521 1.886 0z"></path>
</symbol>
<symbol id="btn-reviews" viewBox="0 0 32 32" >
 <path fill="currentColor"
            d="M17.616 31.331c0.893-0.893 0.893-2.34 0-3.232l-12.098-12.098 12.098-12.098c0.893-0.893 0.893-2.34 0-3.232s-2.34-0.893-3.232 0l-13.714 13.714c-0.893 0.893-0.893 2.34 0 3.232l13.714 13.714c0.893 0.893 2.34 0.893 3.232 0z">
          </path>
</symbol>
<symbol id="btn-reviews-left" viewBox="0 0 32 32" >
 <path fill="currentColor"
            d="M0.669 31.331c-0.893-0.893-0.893-2.34 0-3.232l12.098-12.098-12.098-12.098c-0.893-0.893-0.893-2.34 0-3.232s2.34-0.893 3.232 0l13.714 13.714c0.893 0.893 0.893 2.34 0 3.232l-13.714 13.714c-0.893 0.893-2.34 0.893-3.232 0z">
          </path>
</symbol>
<symbol id="menu-burger" viewBox="0 0 32 32">
<path fill="currentColor" stroke-linejoin="round" stroke-linecap="round" stroke-miterlimit="4" stroke-width="1.6" d="M4 8h24M4 16h24M4 24h24" ></path>
</symbol>
<symbol id="menu-close" viewBox="0 0 32 32">
<path fill="currentColor" d="M8.533 25.333l-1.867-1.867 7.467-7.467-7.467-7.467 1.867-1.867 7.467 7.467 7.467-7.467 1.867 1.867-7.467 7.467 7.467 7.467-1.867 1.867-7.467-7.467-7.467 7.467z" ></path>
</symbol>
</svg>



