<svg xmlns="http://www.w3.org/2000/svg" >


  <symbol id="icon1" viewBox="0 0 260 252">
    <path d="M249.023 66.7283C270.132 85.4452 254.147 115.325 238.316 138.677C209.704 180.88 211.669 219.554 198.846 240.544C185.122 263.01 152.137 243.877 125.825 243.012C100.379 242.174 69.9384 250.466 40.3106 248.134C-23.562 243.105 1.72193 153.359 26.5628 94.2999C40.7111 60.6627 49.6118 27.416 66.7855 9.83358C82.296 -6.04602 107.284 2.11946 127.791 10.618C178.965 31.8264 224.698 45.1605 249.023 66.7283Z" fill="#48EBE2"/>
  </symbol>






 <symbol id="icon2" viewBox="0 0 32 32">

<path d="M7.635 28.547l12.658-12.729-12.449-12.519c-0.497 0.318-0.843 0.868-0.843 1.535v22.333c0 0.569 0.252 1.053 0.635 1.38z"></path>
<path d="M30.048 14.4c1.269 0.698 1.269 2.501 0 3.199l-5.119 2.817-4.637-4.599 4.4-4.364 5.356 2.947z"></path>
<path d="M24.929 20.417l-4.637-4.599-12.658 12.729c0.557 0.477 1.389 0.622 2.122 0.219l15.173-8.349z"></path>
<path d="M7.843 3.299l12.449 12.519 4.4-4.364-14.936-8.219c-0.646-0.355-1.369-0.284-1.913 0.064z"></path>
</symbol>
</svg>

